Normalized EMG Linear Envelopes
nRows=115
nColumns=4

endheader
time	 med_gas_r	  soleus_r	 tib_ant_r	
2.6875	  0.010526	  0.020048	  0.044013	
2.75	  0.009953	  0.020670	  0.043849	
2.8125	  0.009592	  0.021164	  0.043763	
2.875	  0.009497	  0.021580	  0.043670	
2.9375	  0.009445	  0.021454	  0.043604	
3	  0.009472	  0.020985	  0.043469	
3.0625	  0.009615	  0.020585	  0.043389	
3.125	  0.009845	  0.020449	  0.043280	
3.1875	  0.010249	  0.020446	  0.042999	
3.25	  0.010678	  0.020751	  0.042728	
3.3125	  0.010805	  0.021245	  0.042601	
3.375	  0.010557	  0.022362	  0.042511	
3.4375	  0.010241	  0.024453	  0.042486	
3.5	  0.010232	  0.026775	  0.042698	
3.5625	  0.010663	  0.028259	  0.043097	
3.625	  0.011172	  0.027912	  0.043649	
3.6875	  0.011428	  0.026443	  0.044323	
3.75	  0.011466	  0.025310	  0.045096	
3.8125	  0.011276	  0.025051	  0.045818	
3.875	  0.011032	  0.025127	  0.046060	
3.9375	  0.010644	  0.024506	  0.045701	
4	  0.010099	  0.024148	  0.045109	
4.0625	  0.009884	  0.025020	  0.044470	
4.125	  0.010158	  0.025882	  0.043920	
4.1875	  0.010784	  0.026301	  0.043700	
4.25	  0.011146	  0.026504	  0.043874	
4.3125	  0.011036	  0.026610	  0.044123	
4.375	  0.010823	  0.025776	  0.043779	
4.4375	  0.010581	  0.024890	  0.042191	
4.5	  0.010092	  0.024199	  0.039481	
4.5625	  0.009422	  0.022345	  0.035700	
4.625	  0.008969	  0.018143	  0.030999	
4.6875	  0.009062	  0.014490	  0.030639	
4.75	  0.010048	  0.016616	  0.045317	
4.8125	  0.013168	  0.030168	  0.090620	
4.875	  0.019860	  0.060203	  0.180125	
4.9375	  0.030486	  0.108182	  0.308257	
5	  0.042519	  0.166163	  0.437043	
5.0625	  0.053938	  0.220614	  0.526440	
5.125	  0.062763	  0.252893	  0.571224	
5.1875	  0.067358	  0.262111	  0.610723	
5.25	  0.067702	  0.257007	  0.666107	
5.3125	  0.066394	  0.248637	  0.719592	
5.375	  0.065563	  0.248170	  0.749621	
5.4375	  0.065135	  0.255490	  0.752592	
5.5	  0.064584	  0.259115	  0.733395	
5.5625	  0.064060	  0.255719	  0.709630	
5.625	  0.065255	  0.252229	  0.695220	
5.6875	  0.066118	  0.244341	  0.700357	
5.75	  0.066088	  0.233201	  0.716672	
5.8125	  0.065591	  0.222262	  0.726370	
5.875	  0.063875	  0.211592	  0.718285	
5.9375	  0.063012	  0.208015	  0.717059	
6	  0.062358	  0.208034	  0.741835	
6.0625	  0.060908	  0.208906	  0.779027	
6.125	  0.060412	  0.215437	  0.807908	
6.1875	  0.062245	  0.229252	  0.826179	
6.25	  0.064279	  0.240655	  0.844968	
6.3125	  0.065098	  0.245051	  0.851516	
6.375	  0.063149	  0.239743	  0.813836	
6.4375	  0.060030	  0.229894	  0.745434	
6.5	  0.058073	  0.223356	  0.708438	
6.5625	  0.059074	  0.227133	  0.719510	
6.625	  0.063130	  0.242156	  0.746650	
6.6875	  0.068263	  0.265873	  0.746984	
6.75	  0.071015	  0.278037	  0.712347	
6.8125	  0.070531	  0.269935	  0.682705	
6.875	  0.069299	  0.254610	  0.689866	
6.9375	  0.069351	  0.248485	  0.730478	
7	  0.070554	  0.249807	  0.771131	
7.0625	  0.070795	  0.254498	  0.789686	
7.125	  0.069782	  0.258707	  0.797580	
7.1875	  0.068642	  0.258095	  0.806845	
7.25	  0.067234	  0.254102	  0.795821	
7.3125	  0.064944	  0.243582	  0.749620	
7.375	  0.062681	  0.232345	  0.689513	
7.4375	  0.060037	  0.222230	  0.642565	
7.5	  0.057143	  0.205905	  0.623881	
7.5625	  0.055265	  0.186071	  0.641529	
7.625	  0.055700	  0.175123	  0.689141	
7.6875	  0.057424	  0.180016	  0.764241	
7.75	  0.059333	  0.201980	  0.844272	
7.8125	  0.061991	  0.235547	  0.878373	
7.875	  0.064009	  0.258235	  0.846269	
7.9375	  0.064992	  0.258736	  0.787348	
8	  0.067952	  0.261839	  0.747278	
8.0625	  0.073153	  0.277066	  0.723578	
8.125	  0.077466	  0.292209	  0.708517	
8.1875	  0.079071	  0.297013	  0.715396	
8.25	  0.075862	  0.282094	  0.757676	
8.3125	  0.069984	  0.256387	  0.806432	
8.375	  0.065264	  0.237166	  0.816082	
8.4375	  0.063359	  0.231026	  0.787869	
8.5	  0.062984	  0.236878	  0.758423	
8.5625	  0.063237	  0.247965	  0.741656	
8.625	  0.064796	  0.260355	  0.741021	
8.6875	  0.069174	  0.275721	  0.766986	
8.75	  0.074517	  0.288707	  0.786497	
8.8125	  0.075162	  0.281122	  0.785148	
8.875	  0.071064	  0.255488	  0.762616	
8.9375	  0.066586	  0.234385	  0.725446	
9	  0.062673	  0.223365	  0.697593	
9.0625	  0.057645	  0.213044	  0.675166	
9.125	  0.052781	  0.204228	  0.647706	
9.1875	  0.049039	  0.197661	  0.608757	
9.25	  0.046600	  0.191813	  0.558911	
9.3125	  0.043957	  0.183576	  0.510837	
9.375	  0.041934	  0.176080	  0.474314	
9.4375	  0.040475	  0.163278	  0.434700	
9.5	  0.038528	  0.145739	  0.389503	
9.5625	  0.035089	  0.128725	  0.345425	
9.625	  0.029957	  0.110138	  0.288013	
9.6875	  0.024203	  0.087494	  0.221866	
9.75	  0.019061	  0.063500	  0.160296	
9.8125	  0.015246	  0.043559	  0.108841	
